<svg xmlns="http://www.w3.org/2000/svg" xmlns:android="http://schemas.android.com/apk/res/android" height="24dp" viewportHeight="967" viewportWidth="967" width="24dp">
	<path fill="#004A98" d="M9.5,14.2c-0.3,0.7 -0.4,45.2 -0.3,98.8l0.3,97.5 98.5,-0 98.5,-0 0,-98.5 0,-98.5 -98.3,-0.3c-78.1,-0.2 -98.4,-0 -98.7,1zM179.5,112.5l0,72 -71.5,-0 -71.5,-0 -0.3,-71c-0.1,-39.1 0,-71.6 0.3,-72.3 0.3,-1 15.2,-1.2 71.7,-1l71.3,0.3 0,72z" stroke="#004A9800"/>
	<path fill="#004A98" d="M66.5,73.2c-0.3,1.3 -0.4,19.8 -0.3,41.3l0.3,39 41.5,-0 41.5,-0 0.3,-39c0.1,-21.5 0,-40 -0.3,-41.3l-0.5,-2.2 -41,-0 -41,-0 -0.5,2.2z" stroke="#004A9800"/>
	<path fill="#004A98" d="M238.5,14.2c-0.3,0.7 -0.4,19.5 -0.3,41.8l0.3,40.5 11.5,0.2c17.6,0.4 16,-1 16,14.7 0,10.2 0.3,13.6 1.4,14.5 0.9,0.8 5.5,1.1 13.7,0.9l12.4,-0.3 0.5,-29.5 0.5,-29.5 13.7,-0c7.5,-0 14,0.4 14.5,0.8 0.4,0.5 1,7 1.3,14.5l0.5,13.7 13.5,0.5 13.5,0.5 0.3,13.7c0.2,9.9 0.6,13.9 1.6,14.7 0.9,0.8 9.4,1.1 27.7,0.9l26.4,-0.3 0.3,-12.4c0.2,-8.2 -0.1,-12.8 -0.9,-13.7 -0.9,-1.1 -4.3,-1.4 -14.5,-1.4 -7.4,-0 -13.5,-0.1 -13.6,-0.3 -0.1,-0.1 -0.5,-19.3 -0.8,-42.7l-0.5,-42.5 -26.5,-0 -26.5,-0 -0.3,13.7c-0.2,9.9 -0.6,13.9 -1.6,14.7 -0.9,0.8 -10,1.1 -29.7,0.9l-28.4,-0.3 -0.5,-14.5 -0.5,-14.5 -12.3,-0.3c-9.2,-0.2 -12.4,0.1 -12.7,1z" stroke="#004A9800"/>
	<path fill="#004A98" d="M495.4,14.3c-0.2,0.7 -0.3,6.7 -0.2,13.3l0.3,11.9 12.7,0.3c11.4,0.2 12.7,0.1 13.1,-1.5 0.3,-1 0.4,-7 0.3,-13.3l-0.1,-11.5 -12.8,-0.3c-9.9,-0.2 -12.9,-0 -13.3,1.1z" stroke="#004A9800"/>
	<path fill="#004A98" d="M580.7,13.7c-1.3,1.2 -0.8,23.8 0.5,25.1 1.8,1.8 52.1,1.7 53.6,-0.1 0.7,-0.8 1,-5.9 0.9,-13.2l-0.2,-12 -27.1,-0.3c-14.9,-0.1 -27.3,0.1 -27.7,0.5z" stroke="#004A9800"/>
	<path fill="#004A98" d="M667.5,13.8c-0.7,0.4 -0.8,14.9 -0.5,41.7l0.5,41 27.5,-0 27.5,-0 0.3,-11.4c0.2,-7.2 -0.1,-11.8 -0.8,-12.5 -0.6,-0.6 -7,-1.3 -14.8,-1.6l-13.7,-0.5 0,-15 0,-15 14.5,-0.5 14.5,-0.5 0,-13 0,-13 -27,-0.2c-14.8,-0.2 -27.4,-0 -28,0.5z" stroke="#004A9800"/>
	<path fill="#004A98" d="M753.5,14.2c-0.3,0.7 -0.4,45.2 -0.3,98.8l0.3,97.5 98.5,-0 98.5,-0 0,-98.5 0,-98.5 -98.3,-0.3c-78.1,-0.2 -98.4,-0 -98.7,1zM923.4,41.6c0.3,0.9 0.6,33 0.6,71.4 0,68.1 -0.1,70 -1.9,71 -3.1,1.6 -140.2,1.4 -142.4,-0.3 -1.6,-1.1 -1.8,-6.1 -1.7,-71.1 0,-50.7 0.3,-70.2 1.1,-71.2 1,-1.2 13.3,-1.4 72.4,-1.4 64.1,-0 71.3,0.2 71.9,1.6z" stroke="#004A9800"/>
	<path fill="#004A98" d="M810.5,72.3c-0.3,0.6 -0.4,19.2 -0.3,41.2l0.3,40 39.3,0.3c25.9,0.1 40,-0.1 41.2,-0.8 1.9,-1 2,-2.4 2,-39.9 0,-36.3 -0.1,-38.9 -1.8,-40.4 -1.7,-1.5 -6,-1.7 -41.1,-1.7 -30.4,-0 -39.3,0.3 -39.6,1.3z" stroke="#004A9800"/>
	<path fill="#004A98" d="M410.5,43.6c-1,0.4 -1.3,21.9 -0.4,22.8 0.2,0.2 6.1,0.6 13.2,0.8 7,0.3 13.1,0.8 13.5,1.2 0.4,0.4 0.9,6.9 1.2,14.4l0.5,13.7 13.5,0.5 13.5,0.5 0.3,14.2c0.3,16.8 -1.4,15.2 16.7,15.6l12,0.2 0.5,19 0.5,19 10,0.7c5.5,0.3 11.3,1.1 12.8,1.7 1.6,0.6 5.2,1.1 8.1,1.1 3,-0 7.3,0.7 9.6,1.5 2.3,0.8 5.7,1.5 7.6,1.5 1.8,-0 4.5,0.5 6.1,1.1 1.5,0.7 4.8,1.5 7.3,1.9 2.5,0.4 5.9,1.2 7.5,1.8 1.7,0.6 4.6,1.6 6.5,2.2 7.6,2.6 7.5,2.8 7.8,-9.4 0.1,-6 -0.1,-11.3 -0.6,-11.8 -0.5,-0.5 -13.1,-0.9 -28,-0.8 -14.9,-0 -27.3,-0.3 -27.6,-0.8 -0.3,-0.5 -0.6,-19.2 -0.7,-41.6 -0.1,-34 -0.4,-40.9 -1.6,-42.2 -1.2,-1.1 -6.1,-1.4 -27.7,-1.4 -20.6,-0 -26.6,-0.3 -27.4,-1.3 -0.7,-0.8 -1.3,-6.7 -1.4,-13.8l-0.3,-12.4 -26,-0.2c-14.3,-0.1 -26.5,-0 -27,0.3z" stroke="#004A9800"/>
	<path fill="#004A98" d="M552.4,44.3c-0.2,0.7 -0.3,6 -0.2,11.8l0.3,10.4 10.7,0.5c16.3,0.8 15.3,1.6 15.3,-12l0,-11.5 -12.8,-0.3c-10,-0.2 -12.9,-0 -13.3,1.1z" stroke="#004A9800"/>
	<path fill="#004A98" d="M639.5,100.2c-0.3,0.7 -0.6,6.9 -0.7,13.8l-0.3,12.5 -14.5,0.5 -14.5,0.5 0,13 0,13 13.5,0.3c11.2,0.2 13.7,0.5 14.8,1.9 0.9,1.2 1.2,8.3 1.2,26.8 0,27.9 -0.4,26.2 7,30.2 5.4,2.9 12.4,7.6 13.7,9.3 3.1,3.9 3.3,-0.5 3.1,-61.6l-0.3,-60.9 -11.3,-0.3c-8.4,-0.2 -11.4,0.1 -11.7,1z" stroke="#004A9800"/>
	<path fill="#004A98" d="M294.5,128.2c-0.3,0.7 -0.6,7.4 -0.7,14.8l-0.3,13.5 -27.8,0.5 -27.8,0.5 0.1,54.8c0,36.5 -0.3,55.4 -1,56.7 -1,1.8 -2.2,2 -14,2l-12.9,-0 -0.3,13.2 -0.3,13.3 -14.5,0.5 -14.5,0.5 0,13 0,13 12.8,0.3c12.4,0.3 12.8,0.2 13.7,-2 0.6,-1.3 1.9,-3.7 3,-5.3 1.1,-1.7 2.3,-3.7 2.7,-4.5 1.1,-2.4 9.2,-14 15.7,-22.5 9.3,-12.3 16.9,-20.8 31.3,-35.1l13.2,-13.1 -4.2,-0.9 -4.2,-0.9 -0.3,-28.8 -0.2,-28.7 2.6,-1.1c1.5,-0.5 8.1,-0.8 14.8,-0.7l12.1,0.3 0.6,21.5c0.3,11.8 0.6,21.6 0.7,21.7 0.1,0.2 3.7,-2.1 8,-5 8.9,-6 10.9,-7.2 13.9,-8.6 4,-1.8 4.3,-4 4.3,-29.8 0,-18 0.3,-25.2 1.2,-26.1 0.8,-0.8 5.1,-1.2 12.8,-1.2 6.3,-0 12.1,-0.4 12.8,-0.8 0.9,-0.7 1.2,-4 1,-13.3l-0.3,-12.4 -26.8,-0.3c-20.9,-0.2 -26.9,-0 -27.2,1z" stroke="#004A9800"/>
	<path fill="#004A98" d="M695.5,127.6c-1.4,0.6 -0.7,24.7 0.8,25.6 0.7,0.4 6.5,0.8 12.9,0.8 14.4,-0 14,0.5 13.6,-15.2l-0.3,-11.3 -13,-0.2c-7.1,-0.1 -13.4,-0 -14,0.3z" stroke="#004A9800"/>
	<path fill="#004A98" d="M381.7,157.6c-0.4,0.4 -0.7,5.6 -0.7,11.6 0,12 0.8,13.5 5.5,10.4 1.3,-0.9 3.6,-1.6 5,-1.6 1.5,-0 3.6,-0.5 4.8,-1.2 1.2,-0.7 4.2,-1.5 6.7,-1.8l4.5,-0.5 0,-8.5 0,-8.5 -12.6,-0.3c-6.9,-0.1 -12.8,0.1 -13.2,0.4z" stroke="#004A9800"/>
	<path fill="#004A98" d="M353.2,186.2c-0.7,0.7 -1.2,2.1 -1.2,3.1 0,1.7 0.5,1.8 3.8,1.2 2,-0.4 4.6,-1.5 5.7,-2.5 1.1,-1 3.1,-2 4.5,-2.3 1.4,-0.2 -0.7,-0.5 -4.5,-0.6 -4.4,-0 -7.6,0.4 -8.3,1.1z" stroke="#004A9800"/>
	<path fill="#004A98" d="M594.8,186.1c1.7,0.5 3.2,1.4 3.2,1.9 0,0.5 1.7,1.4 3.7,1.9 4.5,1.3 6.8,-0.1 5.2,-3 -0.8,-1.6 -2.1,-1.9 -8.2,-1.8 -6.2,0.1 -6.8,0.2 -3.9,1z" stroke="#004A9800"/>
	<path fill="#004A98" d="M695.6,186.6c-0.3,0.9 -0.6,12.5 -0.6,25.9 0,13.4 0.3,25 0.6,25.9 0.5,1.3 2.7,1.6 13.4,1.6 10.7,-0 12.9,-0.3 13.4,-1.6 0.8,-2 0.8,-48.2 0,-51.2 -0.6,-2.1 -1,-2.2 -13.4,-2.2 -10.7,-0 -12.9,0.3 -13.4,1.6z" stroke="#004A9800"/>
	<path fill="#004A98" d="M69.5,242l-3,0.5 -0.5,14 -0.5,14 -12,0.2c-6.6,0.2 -13,0.5 -14.3,0.8l-2.3,0.6 0.3,26.2 0.3,26.2 13,-0 13,-0 0.2,-12.9c0.2,-7.9 0.7,-13.4 1.4,-14.2 0.9,-1.1 4.2,-1.4 13.9,-1.4 11,-0 12.9,-0.2 13.4,-1.7 0.4,-0.9 0.6,-6.8 0.5,-13.1 -0.1,-6.2 0.3,-11.8 0.8,-12.3 0.5,-0.5 13.2,-1 28.3,-1.1l27.5,-0.3 0.3,-11.9c0.2,-7.6 -0.1,-12.3 -0.8,-13 -1.1,-1.1 -73.3,-1.6 -79.5,-0.6z" stroke="#004A9800"/>
	<path fill="#004A98" d="M180.4,242.4c-0.3,0.7 -0.3,6.6 -0.2,13.2l0.3,11.9 11.9,0.3c7.8,0.2 12.3,-0.1 13.2,-0.9 1.9,-1.6 2,-23.4 0.2,-24.6 -2.2,-1.3 -24.9,-1.3 -25.4,0.1z" stroke="#004A9800"/>
	<path fill="#004A98" d="M727.7,241.7l-4.8,0.4 0.3,12.7 0.3,12.7 41.5,-0 41.5,-0 0.3,-12.3c0.2,-9.3 0,-12.3 -1,-12.6 -1.8,-0.6 -72.1,-1.3 -78.1,-0.9z" stroke="#004A9800"/>
	<path fill="#004A98" d="M895.8,241.7l-28.8,0.3 0,12.8c0,8.7 -0.4,13.4 -1.2,14.5 -1.1,1.4 -3.5,1.7 -14.3,1.9l-13,0.3 -0.5,13 -0.5,13 -13.5,0.5 -13.5,0.5 0,13 0,13 39,0.3c21.5,0.1 40,-0 41.3,-0.3l2.2,-0.5 -0.1,-27.1c0,-15.4 0.3,-27.5 0.8,-28 0.5,-0.5 7.4,-0.8 15.4,-0.7l14.4,0.3 0.5,13.5 0.5,13.5 12.7,0.3c12.6,0.3 12.8,0.2 13.2,-2 0.9,-3.8 0.2,-50.6 -0.7,-51.5 -1,-0.9 -12.7,-1 -53.9,-0.6z" stroke="#004A9800"/>
	<path fill="#004A98" d="M608.5,256.5c-12.6,3.4 -41,11.1 -63,17 -22,5.9 -46.3,12.4 -54,14.5 -7.7,2.1 -35.4,9.5 -61.5,16.5 -55.4,14.8 -97.3,26 -104.7,28.1 -3.4,0.9 -5.8,2.3 -6.9,3.9 -1.7,2.6 -2.5,-0.5 20.6,85.5 4,14.6 9.4,34.8 12,44.9 2.7,10.1 5.7,19.2 6.6,20.2 0.9,1.1 2.7,1.9 3.9,1.9 1.2,-0 12,-2.7 24.1,-5.9 23.3,-6.3 146.4,-39.4 164.9,-44.3 16.3,-4.3 63.1,-16.9 95,-25.4 15.4,-4.2 28.7,-8 29.7,-8.5 2.4,-1.3 3.2,-5.1 1.9,-9.1 -0.8,-2.8 -6.4,-23.5 -22.6,-84.3 -1.5,-5.5 -5.6,-20.8 -9.1,-34 -6.5,-24.5 -7.9,-27.6 -12.3,-27.4 -0.9,-0 -11.9,2.9 -24.6,6.4zM629,265.4c0,0.2 3.8,14.8 8.5,32.3 22,81.8 25.5,95.1 25.5,96.4 0,0.9 -4,2.5 -12.3,4.6 -6.7,1.8 -21.2,5.7 -32.2,8.7 -11,3 -33.7,9.1 -50.5,13.6 -16.8,4.4 -43.1,11.5 -58.5,15.6 -103.2,27.8 -142.9,38.3 -143,38.1 -0.2,-0.2 -10.2,-37.3 -25.1,-93 -5.2,-19.7 -9.4,-36.3 -9.2,-36.9 0.2,-0.6 6.7,-2.8 14.4,-4.8 7.6,-2.1 31,-8.3 51.9,-13.9 20.9,-5.7 52.9,-14.2 71,-19.1 60,-16.1 93.6,-25.1 124.5,-33.5 27.9,-7.6 35,-9.2 35,-8.1z" stroke="#004A9800"/>
	<path fill="#004A98" d="M586,279.2c-7.4,2 -26.8,7.3 -67.5,18.2 -17.4,4.6 -68.2,18.3 -129.5,34.7 -22.8,6.1 -24.8,6.8 -25.6,9.2 -0.4,1.2 -0.7,5 -0.5,8.3 0.4,9.8 -3.8,16.3 -13.1,20.3 -3.4,1.4 -4.9,2.7 -5.4,4.6 -0.9,3.6 15.2,64.2 18,67.3 1.8,2 2.6,2.2 7.7,1.6 10.2,-1.1 17.8,3.3 21.8,12.6 3.2,7.3 4.4,7.5 19.7,3.4 7.1,-2 28.7,-7.7 47.9,-12.9 19.3,-5.2 43.6,-11.7 54,-14.5 10.5,-2.8 40.8,-10.9 67.5,-18.1 26.7,-7.1 49.1,-13.6 49.8,-14.3 0.9,-0.9 1.4,-4.3 1.5,-9.8 0.2,-7.4 0.5,-9 3,-12.7 1.9,-2.9 4.4,-5 7.7,-6.5 6.6,-3 8,-4.4 8,-7.4 0,-1.3 -3.7,-16.2 -8.1,-33.1 -9.5,-35.8 -9.2,-35.2 -19.1,-34.4 -9.9,0.8 -16.5,-3.3 -20.8,-12.9 -2.9,-6.6 -4.6,-7 -17,-3.6zM593.4,292.8c1.1,3.4 9.1,10.5 14.6,13 3,1.4 7.8,2.8 10.6,3 6,0.5 4.4,-3 12.9,28.6 3.1,11.5 5.2,21.2 4.8,21.6 -0.4,0.3 -2.9,2.2 -5.4,4.2 -5.9,4.7 -10.7,13.6 -11.5,21.5l-0.6,5.9 -9.7,2.6c-5.3,1.4 -27.6,7.4 -49.6,13.3 -22,5.9 -40.9,11 -42,11.2 -1.1,0.2 1,-1.2 4.8,-3.3 17,-9.3 28,-29.7 26.2,-48.7 -2.6,-27.2 -23.9,-46.9 -50.8,-46.9 -4.8,-0 -8.6,-0.2 -8.4,-0.4 0.2,-0.2 5.5,-1.7 11.8,-3.3 12,-3 66.7,-17.8 80.4,-21.6 10.1,-2.8 11.2,-2.9 11.9,-0.7zM474,324.3c-7.7,3.8 -16.4,12.1 -20.8,19.8 -16.1,28.5 -2.4,63.8 28.9,74.5 3.6,1.2 8.4,1.8 14.6,1.9 5,-0 8.9,0.3 8.6,0.7 -0.2,0.5 -1.1,0.8 -2,0.8 -0.9,-0 -23.4,5.8 -50,13 -26.7,7.1 -49,13 -49.6,13 -0.7,-0.1 -2.4,-1.9 -4,-4.1 -5,-7.2 -13.7,-12.2 -23.8,-13.5 -3.2,-0.4 -5,-1.2 -5.3,-2.3 -0.3,-0.9 -3.3,-11.9 -6.7,-24.6l-6.1,-23 2.3,-1.5c8.9,-5.8 14.4,-14.3 15.7,-24.4l0.7,-5.9 15.5,-4.2c8.5,-2.3 25.2,-6.8 37,-10 11.8,-3.1 27.6,-7.4 35,-9.5 16.6,-4.7 18.3,-4.8 10,-0.7zM513.7,335c24,11.2 29.5,42.8 10.8,61.6 -4.6,4.6 -11.1,9.1 -12,8.2 -0.2,-0.2 -0.4,-2.1 -0.6,-4.3 -0.2,-3.2 0.4,-4.9 2.8,-8.3 7.1,-9.8 4.3,-22.1 -6.3,-27.2 -3.6,-1.8 -5.7,-2.1 -9.9,-1.7 -6.2,0.6 -9.5,-1.1 -9.5,-4.8 0,-7 8.8,-7.2 11.3,-0.2 1.3,3.6 8.7,3.9 10.9,0.4 1.4,-2.1 0.8,-6.1 -1.3,-9.6 -2.7,-4.5 -5.6,-6.8 -10,-8.2 -2.7,-0.9 -3.9,-2 -5,-4.8 -0.8,-2 -1.6,-4 -1.8,-4.5 -0.9,-2 14.4,0.5 20.6,3.4zM480.8,346c-5.7,7.4 -5.9,17.2 -0.3,23.8 3.7,4.4 8.4,6.2 15.8,6.2 6.9,-0 9.7,1.4 9.7,4.9 0,6 -7.8,7.4 -10.6,1.8 -2,-3.8 -3.1,-4.7 -6.3,-4.7 -6.1,-0 -7.9,6.8 -3.6,13.3 2.5,3.6 8.8,7.7 11.9,7.7 0.9,-0 1.9,1.2 2.2,2.7 0.4,1.6 1.4,3.6 2.3,4.7 1.6,1.8 1.4,1.8 -6.4,1.4 -17.2,-1 -30.8,-12.2 -35.1,-28.8 -4.2,-16.4 4,-35.5 18.2,-42.8l3.9,-2 0.5,4.1c0.4,3.5 0,4.8 -2.2,7.7z" stroke="#004A9800"/>
	<path fill="#004A98" d="M96,339.3c0,34.1 -0.2,41.7 -1.4,43.3 -1.3,1.7 -3.1,2 -14.8,2.4l-13.3,0.5 -0.5,13 -0.5,13 -14.5,-0 -14.5,-0 -0.5,-12.5c-0.8,-18.1 -1.7,-16.9 14.2,-17.2l13.3,-0.3 0.1,-11c0.1,-6.1 -0.2,-11.8 -0.8,-12.8 -0.8,-1.5 -3.1,-1.7 -25.6,-1.7 -18.3,-0 -25.3,0.3 -26.5,1.2 -1.6,1.2 -1.7,4.6 -1.5,41.3l0.3,40 41.4,0.3c36.6,0.2 41.7,0.4 43.3,1.8 1.4,1.4 1.8,3.6 2,13.8l0.3,12.1 12.7,0.3 12.7,0.3 1.1,3.5c0.8,2.2 1,7.2 0.7,13.9 -0.5,8.7 -0.3,10.4 0.9,10.9 0.9,0.3 6.9,0.6 13.4,0.6 14.8,-0 14.3,-0.6 13.8,16.6 -0.2,9.6 0,12.5 1,12.9 2.3,0.9 14.1,0.5 14.6,-0.4 0.4,-0.5 -0.1,-4.1 -0.9,-8.1 -1.1,-5.4 -1.5,-14 -1.5,-36.3 0.1,-16.1 0.5,-31.1 0.9,-33.4 0.6,-3.3 0.5,-4.3 -0.6,-4.7 -0.8,-0.4 -10.6,-0.6 -21.8,-0.6 -17.2,-0 -20.6,-0.2 -21.9,-1.6 -1.3,-1.2 -1.6,-4.1 -1.6,-14.5l0,-12.9 2.6,-1c1.4,-0.6 12.8,-1 25.4,-1 22.5,-0 22.9,-0 24.4,-2.2 0.9,-1.2 1.6,-3.5 1.6,-5.1 0,-1.5 0.6,-4 1.4,-5.5 0.8,-1.5 1.5,-5 1.7,-7.7l0.4,-5 -27.8,-0.5c-23.2,-0.4 -27.9,-0.7 -28.7,-2 -0.5,-0.8 -1,-7.2 -1,-14.2 0,-16.4 -0.3,-16.1 17,-15.6 14.3,0.4 13.2,1.5 12.8,-14.2l-0.3,-10.5 -13.7,-0.5c-7.5,-0.3 -14,-0.9 -14.5,-1.3 -0.4,-0.5 -1,-7 -1.3,-14.5l-0.5,-13.7 -11.7,-0.3 -11.8,-0.3 0,41.4z" stroke="#004A9800"/>
	<path fill="#004A98" d="M756.6,328.9c-0.4,0.5 -0.2,1.2 0.3,1.5 1.2,0.8 11.6,22.6 15.6,32.6 1,2.5 2.4,5.9 3.1,7.7 0.8,1.7 1.4,3.6 1.4,4.3 0,0.6 0.7,2.4 1.5,4.1l1.6,3 13.2,-0.3 13.2,-0.3 0.3,-10.5c0.4,-16.1 1.4,-15 -13.4,-14.8 -10.2,0.1 -12.8,-0.1 -14.1,-1.4 -1.2,-1.3 -1.6,-4.2 -1.7,-14l-0.1,-12.3 -10.2,-0.3c-5.8,-0.1 -10.4,0.1 -10.7,0.7z" stroke="#004A9800"/>
	<path fill="#004A98" d="M924.4,329.3c-0.2,0.7 -0.3,6.2 -0.2,12.3l0.3,10.9 12.4,0.3c8.1,0.2 12.7,-0.1 13.1,-0.8 0.4,-0.6 0.6,-6.1 0.5,-12.3l-0.2,-11.2 -12.7,-0.3c-9.9,-0.2 -12.8,-0 -13.2,1.1z" stroke="#004A9800"/>
	<path fill="#004A98" d="M181.1,357.4c-1.5,1.7 -1.1,20.2 0.4,19.9 0.5,-0.1 1.3,-1.6 1.6,-3.3 0.4,-1.8 1.2,-3.7 1.8,-4.3 0.6,-0.6 1.1,-2 1.1,-3.2 0,-1.1 0.7,-3.1 1.6,-4.3 2.2,-3.2 1,-6.2 -2.5,-6.2 -1.6,-0 -3.4,0.6 -4,1.4z" stroke="#004A9800"/>
	<path fill="#004A98" d="M839.8,357.1c-1.5,0.9 -1.8,2.6 -1.8,11.9 0,6 -0.4,12 -1,13.4l-1,2.6 -12.9,-0 -13,-0 -0.3,13.2 -0.3,13.3 -10.2,0.3 -10.3,0.3 0,4.4c0,2.4 0.5,5.6 1.1,7.2 0.6,1.5 1.4,5.5 1.7,8.8l0.7,6 7.7,0.5c4.2,0.3 8,0.9 8.5,1.3 1.4,1.5 1,27.4 -0.5,28.9 -0.7,0.7 -3.9,1.5 -7,1.8l-5.7,0.5 -0.6,22c-0.3,13.3 -1,23.1 -1.7,24.8 -0.7,1.6 -1.2,5.5 -1.2,8.8 0,3.3 -0.6,7.5 -1.4,9.3 -0.8,1.8 -1.5,6.2 -1.7,9.7l-0.4,6.4 50,0.3c27.5,0.1 51,-0 52.2,-0.3 2.2,-0.5 2.3,-1 2.5,-13.3l0.3,-12.7 13.5,-0.5 13.5,-0.5 0.3,-13.3c0.2,-8.5 -0.1,-13.2 -0.8,-13.2 -0.5,-0 -12.6,-0 -26.7,-0.1l-25.8,-0 -0.5,13.3 -0.5,13.3 -29.5,-0 -29.5,-0 0,-14.5 0,-14.5 14.5,-0.5 14.5,-0.5 0.5,-28 0.5,-28 13,-0.5 13,-0.5 0.3,-12.8c0.3,-15.3 -0.5,-14.6 15.6,-14.5 7,0.1 11.1,-0.3 11.9,-1.1 0.8,-0.7 1.4,-6.1 1.7,-14.4l0.5,-13.2 13.5,-0.5 13.5,-0.5 0.3,-10.5c0.2,-5.8 0,-11.5 -0.3,-12.7l-0.5,-2.2 -39.3,-0c-24.4,-0 -39.9,0.4 -40.9,1z" stroke="#004A9800"/>
	<path fill="#004A98" d="M895.4,413.3c-0.2,0.7 -0.3,6.7 -0.2,13.3l0.3,11.9 12.5,-0 12.5,-0 0,-13 0,-13 -12.3,-0.3c-9.5,-0.2 -12.4,-0 -12.8,1.1z" stroke="#004A9800"/>
	<path fill="#004A98" d="M867.4,443.3c-0.2,0.7 -0.3,6.2 -0.2,12.3l0.3,10.9 10.8,0.3c15.1,0.4 14.8,0.7 14.5,-13.1l-0.3,-11.2 -12.3,-0.3c-9.5,-0.2 -12.4,-0 -12.8,1.1z" stroke="#004A9800"/>
	<path fill="#004A98" d="M924.5,443.2c-0.3,0.8 -0.4,12.8 -0.3,26.8l0.3,25.5 13,-0 13,-0 0,-26.5 0,-26.5 -12.8,-0.3c-9.7,-0.2 -12.9,-0 -13.2,1z" stroke="#004A9800"/>
	<path fill="#004A98" d="M656.5,464.3c-2.2,0.8 -5.6,2.2 -7.5,3.2 -1.9,0.9 -17.5,15.6 -34.5,32.6l-31.1,30.9 -1.1,-4.2c-2.7,-9.8 -10.8,-18.3 -21.1,-22 -4.1,-1.5 -9.2,-1.7 -38.7,-1.8 -36.4,-0 -42.3,-0.5 -66.5,-5.1 -31,-5.9 -52.9,-8 -69.3,-6.5l-7.8,0.8 -32,27.6c-17.7,15.3 -32.4,27.8 -32.9,28 -0.4,0.2 -3.3,-4.3 -6.5,-9.8 -3.2,-5.6 -6.4,-10.8 -7.2,-11.6 -3.4,-3.3 -4.6,-2.7 -61.8,30.6 -13.7,8 -17.2,-1.3 31.5,83.1 23.2,40.4 43.4,74.9 44.7,76.7 2.1,2.7 3,3.3 5.7,3 2,-0.2 15.4,-7.4 34.4,-18.3 24.4,-14.1 31.4,-18.6 32.3,-20.7 1,-2.5 0.6,-3.7 -4.6,-12.8 -3.2,-5.6 -5.6,-10.2 -5.4,-10.4 0.2,-0.1 7.5,-4.4 16.3,-9.4l15.9,-9.2 90.3,-0 90.4,-0 2.9,-2.8c7.9,-7.2 103.5,-117.1 105.6,-121.2 9.5,-18.8 2.4,-40.2 -16.4,-48.8 -6.7,-3.1 -19.2,-4 -25.6,-1.9zM671.9,476.1c16.2,3.4 23.1,21.5 13.7,35.5 -1.2,1.7 -24.1,28.1 -51.1,58.7l-49,55.6 -89.3,0.1c-85.8,-0 -89.4,0.1 -93,1.9 -2,1.1 -9.9,5.6 -17.6,10 -7.6,4.5 -14.4,8.1 -15.1,8.1 -0.6,-0 -1.6,-1 -2.2,-2.3 -0.6,-1.2 -11.7,-20.7 -24.7,-43.1 -13,-22.5 -23.5,-41 -23.4,-41.1 0.3,-0.1 14.2,-12.1 50.9,-43.8l13.7,-11.7 14.3,-0c16,-0 28.5,1.5 51.8,5.9 26.6,5.1 28.6,5.3 68.3,6l38.6,0.6 4.3,3c6.6,4.7 10,13 8.5,21.1 -1,4.9 -9.5,14 -14.5,15.4 -2.1,0.6 -18.3,1 -38.8,1 -34,-0 -35.4,0.1 -37.3,2 -2.8,2.8 -2.5,6.4 0.7,9 2.7,2.1 3.2,2.1 39.8,1.8l37,-0.3 5.5,-2.6c4.6,-2.1 12.5,-9.6 48,-45.2 24.5,-24.6 43.8,-43.1 45.5,-43.8 2.7,-1 7.9,-2.5 9.7,-2.8 0.4,-0.1 3,0.4 5.7,1zM333.4,608.4c21.2,36.8 38.6,67.2 38.6,67.6 0,1.4 -49.2,29.2 -50,28.3 -0.4,-0.4 -12.7,-21.5 -27.2,-46.8 -14.6,-25.3 -32,-55.6 -38.8,-67.3 -6.7,-11.7 -12.1,-21.4 -11.9,-21.6 0.5,-0.5 42.7,-24.9 46.4,-26.9 1.7,-0.8 3.3,-1.2 3.7,-0.9 0.3,0.4 18,30.8 39.2,67.6z" stroke="#004A9800"/>
	<path fill="#004A98" d="M274,558.1c-5.6,2.5 -9.5,6.2 -12.3,11.4 -3,5.6 -3,16.4 0,22.1 3.1,5.8 9.3,11 15.4,12.8 6.5,2 7.3,2 13.8,-0 6.1,-1.8 12.3,-7 15.4,-12.8 3,-5.7 3,-16.5 0,-22.1 -4.4,-8.4 -12.9,-13.5 -22.3,-13.5 -3.4,-0 -7.2,0.8 -10,2.1zM292.1,571.8c2.6,2.3 3.3,3.8 3.6,7.9 0.5,4.7 0.3,5.3 -3,8.9 -3.2,3.5 -4,3.9 -8.6,3.9 -4.1,-0 -5.5,-0.5 -8,-2.9 -5.3,-5.1 -5.3,-12.5 -0.1,-17.7 2.4,-2.4 3.7,-2.9 7.9,-2.9 4.1,-0 5.6,0.5 8.2,2.8z" stroke="#004A9800"/>
	<path fill="#004A98" d="M66.5,471.8c-0.3,0.8 -0.5,6.7 -0.5,13.2 0,10.9 -0.2,12 -2,13 -1.2,0.6 -7.1,0.9 -14.7,0.8l-12.8,-0.3 -0.2,-11.5c-0.4,-17.6 0.9,-16.1 -14.1,-15.8l-12.7,0.3 0,126 0,126 13,-0 13,-0 0.5,-56.5 0.5,-56.5 28,-0.5 28,-0.5 0.3,-12.9c0.1,-7.3 0.7,-13.5 1.3,-14.3 0.8,-0.8 4.9,-1.3 13.2,-1.5l12.2,-0.3 0,-12 0,-12 -12.5,-0.3c-6.8,-0.1 -12.8,-0.6 -13.2,-1 -0.4,-0.4 -0.8,-7 -0.9,-14.7l-0.1,-14 13.3,-0.5 13.4,-0.5 0,-13.3 0,-13.4 -12.2,-0.1c-7.8,-0.1 -12.6,-0.6 -13.4,-1.4 -0.7,-0.7 -1.1,-5 -1,-12.5 0.1,-6.2 -0.2,-11.8 -0.7,-12.5 -1.1,-1.8 -25,-2.2 -25.7,-0.5zM65.5,541l0,14.5 -14.5,-0 -14.5,-0 -0.3,-14.8 -0.3,-14.8 14.8,0.3 14.8,0.3 0,14.5z" stroke="#004A9800"/>
	<path fill="#004A98" d="M125.3,526.8c-1.9,1.2 -2.1,24.1 -0.2,25.3 0.8,0.5 6.6,0.8 12.9,0.7l11.5,-0.3 0,-13 0,-13 -11.5,-0.3c-6.3,-0.1 -12,0.2 -12.7,0.6z" stroke="#004A9800"/>
	<path fill="#004A98" d="M151.9,556.7c0,0.4 -0.1,5.7 -0.1,11.7 0,8 0.4,11.1 1.4,11.7 1.7,1.1 22.9,1.1 24.7,-0 1.1,-0.7 1.1,-1.8 0.2,-6.2 -0.7,-3 -1.7,-6.8 -2.3,-8.4 -0.5,-1.7 -1.3,-4.4 -1.7,-6l-0.7,-3 -10.7,-0.3c-5.9,-0.1 -10.7,0.1 -10.8,0.5z" stroke="#004A9800"/>
	<path fill="#004A98" d="M895,556.2c0,0.2 0,12.2 -0.1,26.8l0,26.5 12.8,-0 12.8,-0 0.3,-12.5c0.4,-16.5 -0.2,-16 16.3,-16 11.3,-0 12.8,-0.2 13.2,-1.8 0.2,-0.9 0.3,-6.4 0.3,-12.2l-0.1,-10.5 -27.7,-0.3c-15.3,-0.1 -27.8,-0.1 -27.8,-0z" stroke="#004A9800"/>
	<path fill="#004A98" d="M794.3,583.8c-7.2,0.2 -11.5,0.7 -12.1,1.5 -0.6,0.7 -1.2,6.4 -1.3,12.7l-0.3,11.5 13,-0 12.9,-0 0.3,-11.8c0.1,-6.5 -0.1,-12.3 -0.5,-13 -0.6,-0.8 -4,-1.1 -12,-0.9z" stroke="#004A9800"/>
	<path fill="#004A98" d="M125.2,584.9c-1,0.6 -1.4,4.1 -1.5,12.7l-0.1,11.9 12.9,-0 13,-0 0.3,-10.5c0.4,-15.7 1.3,-14.7 -12,-14.8 -6.2,-0.1 -11.9,0.2 -12.6,0.7z" stroke="#004A9800"/>
	<path fill="#004A98" d="M180.5,586.3c-0.3,0.7 -0.4,6.2 -0.3,12.3l0.3,10.9 4.4,0.3c6.6,0.5 7.6,-0.1 5.7,-3.8 -0.9,-1.6 -2.3,-4.3 -3.1,-5.9 -0.8,-1.6 -1.5,-3.7 -1.5,-4.8 0,-1 -0.7,-2.7 -1.5,-3.7 -0.8,-1.1 -1.5,-2.8 -1.5,-3.7 0,-2.3 -1.9,-3.5 -2.5,-1.6z" stroke="#004A9800"/>
	<path fill="#004A98" d="M96.2,626.2l0.3,13.2 11.5,0.1 11.5,-0 0.3,-13.3 0.3,-13.2 -12.1,-0 -12.1,-0 0.3,13.2z" stroke="#004A9800"/>
	<path fill="#004A98" d="M838,625.9l0,12.9 2.8,0.5c4.9,0.9 48.6,0.5 50.5,-0.5 1.6,-0.8 1.7,-2.3 1.5,-13.1l-0.3,-12.2 -27.2,-0.3 -27.3,-0.2 0,12.9z" stroke="#004A9800"/>
	<path fill="#004A98" d="M125.3,641.7c-1,0.3 -1.3,6.6 -1.3,26.3 0,19.4 0.3,26 1.3,26.8 1.9,1.6 22.2,1.5 23.6,-0.1 0.6,-0.8 1.2,-6.9 1.3,-14.3l0.3,-12.9 35.5,-0.3c19.5,-0.1 36.1,-0.4 36.8,-0.7 1.6,-0.6 0.3,-3.2 -4,-8.5 -1.5,-1.9 -2.8,-3.8 -2.8,-4.1 0,-1.5 -7.3,-11.4 -8.8,-12.1 -1.9,-0.8 -80,-0.9 -81.9,-0.1z" stroke="#004A9800"/>
	<path fill="#004A98" d="M810.4,642.3c-0.2,0.7 -0.3,6.5 -0.2,12.8l0.3,11.4 13,-0 13,-0 0.2,-10.5c0.3,-16.3 1.5,-15 -13.3,-15 -9.3,-0 -12.6,0.3 -13,1.3z" stroke="#004A9800"/>
	<path fill="#004A98" d="M896.7,642.3c-1.5,1.1 -1.7,2.8 -1.5,12.7l0.3,11.5 14,0.5 14,0.5 0.2,12c0.4,18 -0.8,16.5 13.3,16.5 10.4,-0 12,-0.2 12.8,-1.8 0.7,-1.3 1,-43.7 0.3,-51.5 -0.1,-1.6 -2,-1.7 -25.9,-1.7 -19.2,-0 -26.3,0.3 -27.5,1.3z" stroke="#004A9800"/>
	<path fill="#004A98" d="M740.6,658.5c-4.3,6.4 -8.5,12.4 -9.5,13.4 -6,6 -7.6,9.4 -8.1,17l-0.5,7.6 -6.2,0.6c-6.9,0.7 -7,0.7 -16.8,10.1 -3.8,3.7 -9.1,8.6 -11.7,10.9 -2.6,2.3 -4.5,4.5 -4.2,5 0.3,0.5 2.3,0.9 4.4,0.9 6.1,-0 7,2.1 7,16.5 -0.1,8.4 -0.5,12.5 -1.4,13.7 -1.1,1.5 -3,1.8 -12.4,1.8 -6.1,-0 -11.7,0.3 -12.6,0.6 -1.3,0.5 -1.6,2.6 -1.6,12.4 0,9.4 -0.3,12.2 -1.6,13.4 -1.2,1.3 -4,1.6 -14.2,1.6 -7,-0 -13.4,-0.5 -14.2,-1 -1.2,-0.8 -1.5,-3.2 -1.2,-13 0.2,-10.4 0,-12.1 -1.4,-12.7 -0.9,-0.3 -2.4,-0.1 -3.3,0.5 -1.8,1.2 -13.5,7 -22.6,11.2 -7,3.2 -18.1,7.6 -23.9,9.4 -3.9,1.3 -0.1,2.1 11.7,2.6l12.2,0.5 0,14.5 0,14.5 -12,0.2c-18.2,0.4 -16.5,-1.1 -16.5,15.3 0,7.7 -0.1,14.1 -0.2,14.2 -0.2,0.1 -12.7,0.5 -27.8,0.8l-27.5,0.5 0.2,11c0.2,6 0.5,11.6 0.8,12.2 0.7,1.9 79.8,1.9 81.3,-0 0.6,-0.7 1,-6 1,-12.5 0,-7.4 0.4,-11.7 1.2,-12.7 0.9,-1.1 4.2,-1.5 13.8,-1.7l12.7,-0.3 0.3,-13.3 0.3,-13.3 15.2,0.3 15.2,0.3 0.5,13 0.5,13 12,0.3c15.7,0.3 15.5,0.1 15.5,16.6 -0.1,8.5 -0.5,12.6 -1.4,13.8 -1.1,1.5 -3,1.8 -12.7,1.8 -6.3,-0 -11.9,0.4 -12.6,0.8 -1.7,1.1 -2.2,23 -0.5,23.7 0.8,0.3 6.7,0.5 13.2,0.5 14.8,-0 14.3,-0.6 13.8,16.6 -0.3,11.8 -0.2,12.5 1.7,13 1.1,0.2 13.5,0.3 27.5,0.2l25.5,-0.3 0,-13 0,-13 -13,-0.5 -13,-0.5 0,-15.5 0,-15.5 12.5,-0.3c8.4,-0.2 12.7,-0.7 13.2,-1.5 0.5,-0.7 0.8,-6.3 0.7,-12.6 -0.1,-10 0.1,-11.6 1.7,-12.8 1.2,-0.9 5.5,-1.3 14.5,-1.3 12.1,-0 12.7,0.1 14,2.2 1.2,1.9 1.3,9.7 0.9,43.1 -0.5,40.2 -0.5,40.8 1.5,41.3 1.1,0.2 13.7,0.3 28,0.2l26,-0.3 0.3,-25.9c0.2,-18.4 -0.1,-26.2 -0.9,-27.2 -0.9,-1.1 -4.3,-1.4 -14.4,-1.4 -11.2,-0 -13.4,-0.2 -13.9,-1.6 -0.3,-0.9 -0.6,-7.5 -0.6,-14.9 0,-9.8 0.3,-13.5 1.3,-14.4 0.9,-0.7 10.5,-1.2 28.3,-1.3l26.9,-0.3 0.5,-13 0.5,-13 13,-0.5c7.2,-0.3 13.6,-0.9 14.3,-1.3 0.8,-0.6 1.2,-4.3 1.2,-12.7 0,-9.8 -0.3,-11.9 -1.6,-12.4 -0.9,-0.3 -6.5,-0.6 -12.5,-0.6 -6.1,-0 -11.9,-0.5 -13,-1 -1.7,-1 -1.9,-2.2 -1.9,-14.5 0,-17 -0.5,-16.6 16.3,-16.1 7.6,0.3 12.3,0.8 13.3,1.7 1.2,1 1.5,3.4 1.2,13.6 -0.4,14.6 -2,13.2 16.2,13.6l12.5,0.2 0.5,14.5 0.5,14.5 13,-0 13,-0 0,-41.5 0,-41.5 -13.4,-0.3c-7.7,-0.1 -14,-0.7 -14.8,-1.3 -0.9,-0.8 -1.3,-5.1 -1.5,-14.7l-0.3,-13.7 -70.4,-0.2c-50.8,-0.1 -70.6,-0.4 -71.4,-1.2 -0.8,-0.8 -1.1,-4.7 -0.8,-11.6 0.4,-15.4 1.3,-14.5 -13.3,-14.5 -8.1,-0 -12.6,-0.4 -13.4,-1.2 -0.8,-0.8 -1.2,-4.6 -1.2,-10.3 0,-4.9 -0.4,-9.6 -0.9,-10.3 -0.6,-1 -3.1,2.1 -8.5,10.3zM808.5,726.3c1.3,2.1 1.5,7.9 1.3,43.3l-0.3,40.9 -43,-0 -43,-0 -0.3,-42c-0.1,-23.1 0,-42.6 0.3,-43.2 0.3,-1 9.7,-1.3 41.9,-1.3l41.6,-0 1.5,2.3z" stroke="#004A9800"/>
	<path fill="#004A98" d="M753.4,757.3c-0.2,0.7 -0.3,6.2 -0.2,12.3l0.3,10.9 10,0.3c15.4,0.4 14.5,1.1 14.5,-11.6 0,-7.1 -0.4,-11.2 -1.2,-12 -1.8,-1.8 -22.7,-1.7 -23.4,0.1z" stroke="#004A9800"/>
	<path fill="#004A98" d="M238,689.9c0,2.2 0.6,4.4 1.5,5.1 1.8,1.5 6.5,0.5 6.5,-1.4 0,-1.2 -6.3,-7.6 -7.5,-7.6 -0.3,-0 -0.5,1.7 -0.5,3.9z" stroke="#004A9800"/>
	<path fill="#004A98" d="M66.4,698.4c-0.3,0.7 -0.3,6.6 -0.2,13.2l0.3,11.9 26.5,-0 26.5,-0 0,-13 0,-13 -26.3,-0.2c-20.2,-0.1 -26.4,0.1 -26.8,1.1z" stroke="#004A9800"/>
	<path fill="#004A98" d="M180.4,698.3c-0.2,0.7 -0.3,6.7 -0.2,13.3l0.3,11.9 26.8,0.3 26.8,0.2 -0.3,-13.2 -0.3,-13.3 -26.3,-0.3c-21.1,-0.2 -26.4,-0 -26.8,1.1z" stroke="#004A9800"/>
	<path fill="#004A98" d="M266.7,715.7c-0.4,0.3 -0.7,2.5 -0.7,4.8 0,2.4 -0.6,4.7 -1.3,5.3 -0.8,0.7 -6.7,1.3 -13.8,1.4l-12.4,0.3 -0.3,11.7c-0.3,13.8 -1.3,12.9 14.3,13.2 6.7,0.1 10.9,0.7 11.9,1.5 1.3,1.1 1.6,3.7 1.6,13.7 0,12 0.1,12.4 2.3,12.9 1.2,0.3 13.5,0.4 27.2,0.3l25,-0.3 0.3,-12.8c0.3,-14.8 0.8,-13.9 -11.8,-21.7 -4,-2.5 -7.8,-5 -8.4,-5.5 -0.6,-0.6 -2.7,-2.1 -4.7,-3.3 -1.9,-1.2 -4.7,-3.2 -6,-4.4 -1.4,-1.3 -4.3,-3.5 -6.5,-5 -2.1,-1.6 -6.4,-5 -9.4,-7.8 -5.7,-5.1 -6.2,-5.5 -7.3,-4.3z" stroke="#004A9800"/>
	<path fill="#004A98" d="M652.8,744.4c-4.2,2.8 -7.7,5.6 -7.8,6.3 0,1.1 8.9,2.4 14.5,2 3,-0.2 3,-0.2 3.3,-7 0.2,-5 0,-6.7 -1,-6.6 -0.7,0.1 -4.8,2.4 -9,5.3z" stroke="#004A9800"/>
	<path fill="#004A98" d="M9.5,757.2c-0.3,0.7 -0.4,44.7 -0.3,97.8l0.3,96.5 98.5,-0 98.5,-0 0.3,-95.5c0.1,-52.5 0,-96.5 -0.3,-97.8l-0.5,-2.2 -98.1,-0c-77.4,-0 -98.1,0.3 -98.4,1.2zM179.8,851.5c0.1,38.5 0,71 -0.3,72.3l-0.5,2.2 -70.3,-0c-38.6,-0 -70.8,-0.4 -71.5,-0.8 -1,-0.7 -1.3,-15.1 -1.2,-71.6 0,-39 0.3,-71.2 0.6,-71.7 0.3,-0.5 30.8,-0.8 71.7,-0.7l71.2,0.3 0.3,70z" stroke="#004A9800"/>
	<path fill="#004A98" d="M66.5,812.2c-0.3,0.7 -0.4,19.5 -0.3,41.8l0.3,40.5 41.5,-0 41.5,-0 0,-41.5 0,-41.5 -41.3,-0.3c-32.5,-0.2 -41.4,-0 -41.7,1z" stroke="#004A9800"/>
	<path fill="#004A98" d="M352,774.9c0,3.5 0.4,5.1 1.6,5.5 2,0.8 19.8,0.8 21.8,-0 2.2,-0.8 1,-2.4 -1.8,-2.4 -1.2,-0 -3.1,-0.7 -4.2,-1.5 -1,-0.8 -2.5,-1.5 -3.2,-1.5 -0.8,-0 -2.8,-0.6 -4.5,-1.4 -1.8,-0.8 -4.7,-1.9 -6.4,-2.4l-3.3,-1.1 0,4.8z" stroke="#004A9800"/>
	<path fill="#004A98" d="M324.2,797.2l0.3,13.3 10,0.3c15.7,0.5 14.6,1.4 14.3,-13.6l-0.3,-12.7 -12.3,-0.3 -12.3,-0.3 0.3,13.3z" stroke="#004A9800"/>
	<path fill="#004A98" d="M467.3,796.6c-0.9,0.4 -1.3,2.8 -1.3,7 0,7.7 -0.2,7.6 15,7.2l10.5,-0.3 0,-7 0,-7 -11.5,-0.2c-6.3,-0.1 -12.1,0.1 -12.7,0.3z" stroke="#004A9800"/>
	<path fill="#004A98" d="M238.5,812.2c-0.3,0.7 -0.4,19.5 -0.3,41.8l0.3,40.5 27.5,-0 27.5,-0 0,-41.5 0,-41.5 -27.3,-0.3c-21.3,-0.2 -27.4,-0 -27.7,1z" stroke="#004A9800"/>
	<path fill="#004A98" d="M410.7,811.6c-0.4,0.4 -0.7,5.9 -0.8,12.3 -0.1,6.4 -0.4,12.7 -0.8,14.1l-0.7,2.5 -41.9,0.5 -42,0.5 -0.3,27c-0.1,16.8 -0.6,27.3 -1.3,28 -0.5,0.5 -7.2,1.2 -14.7,1.5l-13.7,0.5 0,26.5 0,26.5 13,-0 13,-0 0.5,-13 0.5,-13 29.5,-0 29.5,-0 0.3,13.3 0.3,13.2 26.7,-0.2 26.7,-0.3 0.5,-13 0.5,-13 29.5,-0 29.5,-0 0.5,13 0.5,13 26.5,-0 26.5,-0 0,-12.5 0,-12.5 -12.5,-0.3c-6.8,-0.1 -12.9,-0.7 -13.4,-1.2 -0.6,-0.6 -0.8,-11.7 -0.7,-26.8 0.2,-21.6 0,-26.1 -1.2,-27.1 -1,-0.8 -5.2,-1.1 -13.3,-0.9l-11.9,0.3 -0.3,12.4c-0.1,7.1 -0.7,13 -1.4,13.8 -0.8,1 -4.6,1.3 -14.4,1.3 -12.2,-0 -13.4,-0.2 -14.4,-1.9 -0.5,-1.1 -1,-7.1 -1,-13.4 0,-9.6 -0.3,-11.6 -1.6,-12.1 -0.9,-0.3 -6.9,-0.6 -13.4,-0.6 -8.4,-0 -12.1,-0.4 -12.7,-1.3 -0.4,-0.6 -1,-13.8 -1.3,-29.2l-0.5,-28 -11.6,-0.3c-6.3,-0.1 -11.8,0.1 -12.2,0.4zM408.1,867.7c1,1.1 1.5,5.2 1.7,13.6 0.4,17.1 0.8,16.7 -16.1,16.7 -9,-0 -13.7,-0.4 -14.5,-1.2 -0.8,-0.8 -1.2,-5.6 -1.2,-15 0,-12 0.2,-13.8 1.8,-14.7 0.9,-0.6 7.4,-1.1 14.3,-1.1 10.6,-0 12.9,0.3 14,1.7z" stroke="#004A9800"/>
	<path fill="#004A98" d="M495,824.4c0,7.4 0.3,13.6 0.8,13.8 0.4,0.2 6.3,0.1 13.2,-0.2l12.5,-0.5 0,-13 0,-13 -13.2,-0.3 -13.3,-0.3 0,13.5z" stroke="#004A9800"/>
	<path fill="#004A98" d="M639.4,842.3c-0.2,0.7 -0.3,6.2 -0.2,12.3l0.3,10.9 11.5,-0 11.5,-0 0,-12 0,-12 -11.3,-0.3c-8.7,-0.2 -11.4,-0 -11.8,1.1z" stroke="#004A9800"/>
	<path fill="#004A98" d="M867.2,896.2l0.3,55.3 26.5,-0 26.5,-0 0.5,-13 0.5,-13 14.5,-0.5 14.5,-0.5 -0.2,-12c-0.1,-6.6 -0.2,-12.6 -0.2,-13.3 -0.1,-0.9 -6.3,-1.2 -27.5,-1.2 -23.4,-0 -27.5,-0.2 -28.6,-1.5 -1.6,-1.9 -1.5,-25.8 0.1,-28.7 0.8,-1.5 2.7,-1.8 13.7,-2l12.7,-0.3 0,-12 0,-12 -26.8,-0.3 -26.7,-0.2 0.2,55.2z" stroke="#004A9800"/>
	<path fill="#004A98" d="M609.4,871.3c-0.2,0.7 -0.3,6.2 -0.2,12.3l0.3,10.9 13,-0 13,-0 0.2,-10.9c0.2,-6.9 -0.1,-11.4 -0.8,-12.3 -1.6,-1.9 -24.7,-1.9 -25.5,-0z" stroke="#004A9800"/>
	<path fill="#004A98" d="M580.5,898.9c-0.3,0.5 -0.5,6.3 -0.4,12.9 0,9.7 0.3,12.2 1.6,12.6 1.9,0.8 22.7,0.8 24.6,0.1 1.1,-0.5 1.3,-2.9 1.1,-12.5 -0.1,-6.6 -0.5,-12.4 -0.9,-13 -0.8,-1.3 -25.2,-1.4 -26,-0.1z" stroke="#004A9800"/>
	<path fill="#004A98" d="M640.9,926.2c-1.8,0.7 -1.9,1.6 -1.7,13l0.3,12.3 26.5,-0 26.5,-0 0.3,-10.5c0.5,-16.6 3.3,-14.9 -25.4,-15.2 -13.5,-0.2 -25.4,-0 -26.5,0.4z" stroke="#004A9800"/>
	<path fill="#004A98" d="M761.5,926l-8,0.5 -0.3,12.7 -0.3,12.8 12.1,-0c6.6,-0 12,-0.1 12.1,-0.3 0.7,-1.9 0.7,-22.2 -0.1,-23.6 -1.2,-2.3 -4.8,-2.8 -15.5,-2.1z" stroke="#004A9800"/>
</svg>
